Coordinates
version=1
nRows=26
nColumns=24
inDegrees=yes

Units are S.I. units (second, meters, Newtons, ...)
Angles are in degrees.

endheader
time	pelvis_tilt	pelvis_list	pelvis_rotation	pelvis_tx	pelvis_ty	pelvis_tz	hip_flexion_r	hip_adduction_r	hip_rotation_r	knee_angle_r	ankle_angle_r	subtalar_angle_r	mtp_angle_r	hip_flexion_l	hip_adduction_l	hip_rotation_l	knee_angle_l	ankle_angle_l	subtalar_angle_l	mtp_angle_l	lumbar_extension	lumbar_bending	lumbar_rotation
      1.22066667	     -1.57134207	      4.20097201	     -3.18747387	      0.16635135	      1.01034834	      0.31272365	     14.82733909	     -6.33899170	     -2.63024717	    -65.66961431	    -13.03886335	    -10.16298673	     11.67580717	      8.03240893	      9.32505971	      7.04403747	    -12.25501582	      4.99995769	    -15.63009751	      1.02092830	    -11.36301936	      1.70344116	     -0.45234150
      1.22483333	     -1.54528260	      3.98849134	     -3.23517417	      0.17132959	      1.01127983	      0.31264861	     15.33829533	     -6.07349120	     -2.65034745	    -65.45397722	    -12.00738800	    -10.29147786	     11.58329686	      7.46803724	      9.10301903	      7.11052090	    -11.82009357	      4.99343395	    -15.66481776	      0.98552812	    -11.43903579	      2.06079196	     -0.79073399
      1.22900000	     -1.57494810	      3.76336241	     -3.27566084	      0.17630426	      1.01212430	      0.31261702	     15.89148297	     -5.77378329	     -2.67688401	    -65.16458867	    -11.06537865	    -10.62921899	     11.55047494	      6.98414637	      8.85712680	      7.12081715	    -11.42736245	      5.00351776	    -15.63211387	      0.97096679	    -11.43780764	      2.35108616	     -0.88337604
      1.23316667	     -1.54274083	      3.52840139	     -3.30358504	      0.18130094	      1.01306070	      0.31253450	     16.34597917	     -5.47437800	     -2.72187828	    -64.78552605	    -10.13738242	    -10.81958524	     11.42107866	      6.40806889	      8.61126641	      7.20357964	    -10.98627273	      5.00535407	    -15.64765251	      0.92491369	    -11.51706714	      2.73559833	     -1.22891227
      1.23733333	     -1.57193523	      3.30464158	     -3.31844811	      0.18628237	      1.01385620	      0.31245632	     16.85872903	     -5.17946360	     -2.77820029	    -64.36117923	     -9.23692515	    -11.08449760	     11.26142467	      5.91724471	      8.37263546	      7.26500133	    -10.57976573	      5.00186807	    -15.65691133	      0.87030374	    -11.51625474	      3.07110197	     -1.47251487
      1.24150000	     -1.54940108	      3.07208793	     -3.33177551	      0.19127028	      1.01472738	      0.31239023	     17.28985218	     -4.87490046	     -2.84375864	    -63.85597801	     -8.37575563	    -11.36479394	     11.08675144	      5.36634119	      8.12462786	      7.31675285	    -10.16351836	      5.00056783	    -15.64047375	      0.81190998	    -11.58159019	      3.40799395	     -1.69085293
      1.24566667	     -1.60331583	      2.85101930	     -3.33393101	      0.19623247	      1.01541691	      0.31231114	     17.79861618	     -4.57609486	     -2.91320358	    -63.31517199	     -7.51275196	    -11.67268713	     11.01718558	      4.92755946	      7.88503858	      7.33483408	     -9.80433658	      5.00465010	    -15.59930424	      0.78678639	    -11.57087094	      3.71362897	     -1.78562066
      1.24983333	     -1.55733765	      2.61801401	     -3.31187400	      0.20124614	      1.01626257	      0.31220257	     18.15616177	     -4.27941132	     -3.01763505	    -62.67409325	     -6.71768308	    -11.95900007	     10.63784267	      4.34379845	      7.64054443	      7.44085668	     -9.37336393	      4.99687742	    -15.60009146	      0.66835606	    -11.64289406	      4.07683563	     -2.22104334
      1.25400000	     -1.55808442	      2.35833849	     -3.30421257	      0.20624054	      1.01701110	      0.31210942	     18.55073165	     -3.93904877	     -3.10126686	    -61.97169549	     -5.96811815	    -12.21531562	     10.33736301	      3.82614206	      7.36188548	      7.50367548	     -8.97583775	      5.03690259	    -15.55531682	      0.57762264	    -11.69423689	      4.47337231	     -2.39328419
      1.25816667	     -1.55925422	      2.10864332	     -3.27837233	      0.21125046	      1.01771733	      0.31202669	     18.92205620	     -3.60869781	     -3.19776709	    -61.20761568	     -5.22247945	    -12.48019574	     10.08563546	      3.32162001	      7.09186581	      7.54936700	     -8.60236772	      5.07193619	    -15.51423309	      0.50242092	    -11.72079920	      4.82266789	     -2.59736064
      1.26233333	     -1.56571410	      1.85417328	     -3.24206206	      0.21626464	      1.01838374	      0.31192132	     19.27718345	     -3.27436764	     -3.30063999	    -60.38017788	     -4.51539402	    -12.76006636	      9.83822081	      2.82820161	      6.81742841	      7.60218860	     -8.24038717	      5.11017414	    -15.46680002	      0.43038264	    -11.74655817	      5.18741480	     -2.81360101
      1.26650000	     -1.56958283	      1.61180645	     -3.19615368	      0.22128198	      1.01900654	      0.31181656	     19.61224652	     -2.95296322	     -3.40427355	    -59.50061070	     -3.82767249	    -13.03074664	      9.58229168	      2.33654289	      6.55512773	      7.65716522	     -7.88371586	      5.15036480	    -15.41568189	      0.35752009	    -11.77213881	      5.53615724	     -3.03963437
      1.27066667	     -1.54867579	      1.36288076	     -3.13806633	      0.22629938	      1.01962457	      0.31171639	     19.89631850	     -2.62450877	     -3.51352209	    -58.55578362	     -3.18406224	    -13.32132881	      9.24430370	      1.82439726	      6.28455837	      7.71522289	     -7.53971757	      5.19635722	    -15.34990586	      0.26475061	    -11.83214860	      5.88843802	     -3.30675532
      1.27483333	     -1.56813096	      1.13234493	     -3.07361674	      0.23131217	      1.02012596	      0.31161284	     20.21589790	     -2.31202925	     -3.61522540	    -57.58740545	     -2.44599068	    -13.49489814	      4.41093183	      1.37296256	      6.03352609	      7.76571209	     -7.22866271	      5.26383011	    -15.30481437	     -0.99993367	    -11.84228271	      6.21975327	     -3.49991884
      1.27900000	     -1.60443438	      0.89256128	     -3.00119050	      0.23634563	      1.02056512	      0.31150293	     20.52645697	     -1.99118081	     -3.71809792	    -56.54091657	     -1.84684061	    -13.71235736	      4.40195694	      0.95113590	      5.77038705	      7.80263233	     -6.94389985	      5.32935794	    -15.24391578	     -0.99650777	    -11.83141519	      6.54555154	     -3.62411574
      1.28316667	     -1.57947148	      0.65589094	     -2.92442595	      0.24140081	      1.02106014	      0.31140031	     20.74606139	     -1.67658732	     -3.81998796	    -55.42718874	     -1.35377977	    -13.99377797	      4.36114618	      0.44226580	      5.50920689	      7.86546482	     -6.61221184	      5.41978942	    -15.14807573	     -0.99532913	    -11.88371672	      6.90011017	     -3.91293522
      1.28733333	     -1.58325374	      0.42881214	     -2.83699479	      0.24645124	      1.02144799	      0.31128432	     20.98171662	     -1.37290837	     -3.91903055	    -54.27234689	     -0.85712383	    -14.23446653	      4.30558960	     -0.01385165	      5.25862513	      7.91608712	     -6.32402519	      5.50406012	    -15.06899465	     -0.99851879	    -11.90093193	      7.22991011	     -4.14639836
      1.29150000	     -1.57388655	      0.20015040	     -2.74194640	      0.25150886	      1.02180822	      0.31117383	     21.18104977	     -1.06855843	     -4.01777045	    -53.06230258	     -0.40826073	    -14.48401666	      4.22724804	     -0.47538587	      5.00567331	      7.96862948	     -6.05489017	      5.59482300	    -14.98382304	     -1.00633550	    -11.93695141	      7.55895790	     -4.38993655
      1.29566667	     -1.58302111	     -0.01614363	     -2.64018798	      0.25657675	      1.02209370	      0.31105912	     21.38349642	     -0.78043420	     -4.11585447	    -51.80624030	     -0.00452969	    -14.69786742	      4.14603585	     -0.91046344	      4.76473303	      8.02331330	     -5.79718632	      5.69388233	    -14.90907381	     -1.01611482	    -11.94205137	      7.87356744	     -4.60313984
      1.29983333	     -1.60908642	     -0.21709618	     -2.53178159	      0.26162437	      1.02229850	      0.31094788	     21.58997578	     -0.50692371	     -4.20019768	    -50.51141432	      0.39913974	    -14.87840330	      4.08221282	     -1.30281285	      4.54078447	      8.07741773	     -5.58795848	      5.77064514	    -14.85134735	     -1.02539224	    -11.94151548	      8.16267833	     -4.77189355
      1.30400000	     -1.57937943	     -0.41015087	     -2.42655634	      0.26671225	      1.02252849	      0.31085280	     21.71566760	     -0.24604291	     -4.28467775	    -49.16378825	      0.68156821	    -15.12672976	      3.96624878	     -1.78471507	      4.32287241	      8.14827471	     -5.31541214	      5.88134674	    -14.76505067	     -1.04191611	    -11.98605053	      8.45134837	     -5.06708990
      1.30816667	     -1.60754933	     -0.58993626	     -2.30818521	      0.27177700	      1.02260915	      0.31073485	     21.89068549	     -0.00167753	     -4.36253420	    -47.78576461	      0.99964458	    -15.27714385	      3.87844472	     -2.16264205	      4.12152224	      8.21711260	     -5.13073827	      5.96795228	    -14.71508052	     -1.05523274	    -11.96750221	      8.72521531	     -5.23782342
      1.31233333	     -1.60325546	     -0.75500371	     -2.19847997	      0.27686950	      1.02267663	      0.31065671	     22.01532527	      0.22867133	     -4.43299435	    -46.36910707	      1.21919187	    -15.49589557	      3.74099714	     -2.60064222	      3.93220113	      8.29666887	     -4.88991112	      6.06972433	    -14.65364667	     -1.07602747	    -11.99263301	      8.96974818	     -5.51322883
      1.31650000	     -1.61443847	     -0.91008207	     -2.08093872	      0.28195147	      1.02267431	      0.31057005	     22.13791208	      0.44691594	     -4.49487964	    -44.91101485	      1.42971994	    -15.66558868	      3.58970372	     -3.00083652	      3.75500470	      8.38161202	     -4.69252900	      6.16111874	    -14.60454324	     -1.09869248	    -11.98453150	      9.21419741	     -5.73983190
      1.32066667	     -1.66232057	     -1.05458583	     -1.96053254	      0.28702803	      1.02255898	      0.31048873	     22.28798480	      0.64793993	     -4.56466638	    -43.42878276	      1.65554160	    -15.74736009	      3.49478063	     -3.34117372	      3.58880243	      8.45202584	     -4.53616889	      6.23959440	    -14.58504579	     -1.11283571	    -11.96400492	      9.42365982	     -5.87864030
      1.32483333	     -1.67087138	     -1.18394560	     -1.84155199	      0.29212435	      1.02245913	      0.31041396	     22.37095301	      0.83565333	     -4.61357937	    -41.89568581	      1.81830845	    -15.86671985	      3.39481201	     -3.73300938	      3.43965208	      8.54613349	     -4.36174504	      6.32048750	    -14.55473803	     -1.12663681	    -11.95270007	      9.64395434	     -6.06086465
